<svg width="800" height="800" viewBox="0 0 800 800" fill="none" xmlns="http://www.w3.org/2000/svg">
<g clip-path="url(#clip0_4_4)">
<path d="M599 525V526H600H749V574H551V226H599V525Z" fill="#F7D747" stroke="#BFA841" stroke-width="2"/>
<path d="M376 575V574H375H350C337.004 574 324.541 568.837 315.352 559.648C306.162 550.459 301 537.996 301 525V275C301 262.004 306.162 249.541 315.352 240.352C324.541 231.162 337.004 226 350 226H450C462.996 226 475.459 231.162 484.648 240.352C493.838 249.541 499 262.004 499 275V525C499 537.996 493.838 550.459 484.648 559.648C475.459 568.837 462.996 574 450 574H425H424V575V625V626H425H474V674H425C412.004 674 399.541 668.837 390.352 659.648C381.162 650.459 376 637.996 376 625V575ZM349 525V526H350H450H451V525V275V274H450H350H349V275V525Z" fill="#A8FDF6" stroke="#78B0AC" stroke-width="2"/>
<path d="M200 574H51V526H200H201V525V425V424H200H100C87.0044 424 74.541 418.838 65.3518 409.648C56.1625 400.459 51 387.996 51 375V275C51 262.004 56.1625 249.541 65.3518 240.352C74.541 231.162 87.0044 226 100 226H249V274H100H99V275V375V376H100H200C212.996 376 225.459 381.162 234.648 390.352C243.838 399.541 249 412.004 249 425V525C249 537.996 243.838 550.459 234.648 559.648C225.459 568.837 212.996 574 200 574Z" fill="#FD428D" stroke="#BC0F55" stroke-width="2"/>
</g>
<defs>
<clipPath id="clip0_4_4">
<rect width="800" height="800" fill="white"/>
</clipPath>
</defs>
</svg>
